<svg width="40" height="41" viewBox="0 0 40 41" fill="none" xmlns="http://www.w3.org/2000/svg">
<g clip-path="url(#clip0)">
<path d="M12.5836 36.75C27.6742 36.75 35.9305 24.2445 35.9305 13.4031C35.9305 13.0515 35.9227 12.6922 35.907 12.3406C37.5131 11.1791 38.8992 9.74042 40 8.09216C38.5042 8.75767 36.9161 9.1923 35.2898 9.38123C37.0021 8.35485 38.2842 6.74245 38.8984 4.84294C37.2876 5.7976 35.526 6.47102 33.6891 6.83435C32.4514 5.51927 30.815 4.64853 29.0328 4.35675C27.2506 4.06498 25.422 4.36842 23.8296 5.22016C22.2372 6.0719 20.9697 7.42451 20.2231 9.06885C19.4765 10.7132 19.2924 12.5577 19.6992 14.3172C16.4375 14.1535 13.2466 13.3062 10.3333 11.8302C7.42004 10.3542 4.84949 8.28239 2.78828 5.74919C1.74067 7.55541 1.42009 9.69274 1.89172 11.7268C2.36334 13.7609 3.59177 15.5391 5.32734 16.7C4.02438 16.6586 2.74996 16.3078 1.60938 15.6765V15.7781C1.60821 17.6736 2.2635 19.511 3.46385 20.9779C4.6642 22.4449 6.33554 23.4509 8.19375 23.825C6.98676 24.1552 5.71997 24.2033 4.49141 23.9656C5.01576 25.5957 6.03595 27.0215 7.40962 28.0439C8.78328 29.0663 10.4419 29.6343 12.1539 29.6687C9.24737 31.9518 5.65696 33.1902 1.96094 33.1844C1.30548 33.1833 0.650665 33.1432 0 33.064C3.75476 35.4729 8.12255 36.7523 12.5836 36.75Z" fill="#2C63E5"/>
</g>
<defs>
<clipPath id="clip0">
<rect width="40" height="40" fill="white" transform="translate(0 0.5)"/>
</clipPath>
</defs>
</svg>
